<svg id="svg" version="1.1" xmlns="http://www.w3.org/2000/svg" xmlns:xlink="http://www.w3.org/1999/xlink" width="400" height="400" viewBox="0, 0, 400,400"><g id="svgg"><path id="path0" d="M182.200 35.976 C 180.220 36.099,186.250 36.144,195.600 36.076 C 204.950 36.008,212.870 35.894,213.200 35.822 C 214.232 35.600,185.992 35.739,182.200 35.976 M215.091 36.289 C 215.801 36.377,217.061 36.379,217.891 36.292 C 218.721 36.205,218.140 36.133,216.600 36.131 C 215.060 36.129,214.381 36.200,215.091 36.289 M172.400 36.819 C 171.323 36.997,172.127 37.033,174.400 36.908 C 176.490 36.793,178.275 36.631,178.367 36.549 C 178.641 36.303,174.335 36.498,172.400 36.819 M219.633 36.545 C 219.725 36.625,221.600 36.785,223.800 36.902 C 226.474 37.044,227.203 37.006,226.000 36.787 C 224.195 36.458,219.321 36.273,219.633 36.545 M167.107 37.490 C 167.826 37.579,168.906 37.577,169.507 37.486 C 170.108 37.395,169.520 37.322,168.200 37.324 C 166.880 37.326,166.388 37.401,167.107 37.490 M229.100 37.489 C 229.815 37.578,230.985 37.578,231.700 37.489 C 232.415 37.401,231.830 37.328,230.400 37.328 C 228.970 37.328,228.385 37.401,229.100 37.489 M156.100 39.476 C 156.485 39.576,157.115 39.576,157.500 39.476 C 157.885 39.375,157.570 39.293,156.800 39.293 C 156.030 39.293,155.715 39.375,156.100 39.476 M142.607 42.053 C 140.888 42.456,139.778 43.200,140.896 43.200 C 141.257 43.200,141.664 43.020,141.800 42.800 C 141.936 42.580,142.476 42.400,143.000 42.400 C 143.524 42.400,144.064 42.220,144.200 42.000 C 144.336 41.780,144.392 41.618,144.324 41.640 C 144.256 41.662,143.483 41.848,142.607 42.053 M257.020 42.758 C 257.229 42.955,258.030 43.230,258.800 43.370 L 260.200 43.625 258.854 43.012 C 257.344 42.325,256.425 42.198,257.020 42.758 M138.200 43.469 L 136.600 44.002 138.200 43.765 C 139.775 43.532,140.295 43.327,139.967 43.068 C 139.875 42.996,139.080 43.176,138.200 43.469 M129.800 45.600 C 129.296 45.817,129.222 45.944,129.600 45.944 C 129.930 45.944,130.560 45.789,131.000 45.600 C 131.504 45.383,131.578 45.256,131.200 45.256 C 130.870 45.256,130.240 45.411,129.800 45.600 M114.800 51.072 L 113.800 51.666 114.800 51.439 C 115.350 51.313,115.935 51.208,116.100 51.205 C 116.265 51.202,116.400 51.020,116.400 50.800 C 116.400 50.280,116.026 50.344,114.800 51.072 M196.800 60.428 C 185.599 61.683,177.278 69.921,175.041 81.972 L 174.563 84.543 169.382 86.007 C 160.128 88.622,149.702 92.920,143.738 96.580 L 142.076 97.600 140.362 96.168 C 132.091 89.258,118.389 89.583,109.679 96.895 C 99.834 105.160,97.994 120.341,105.637 130.247 L 107.246 132.333 105.156 136.040 C 101.706 142.161,97.706 152.450,94.910 162.400 L 94.179 165.000 91.589 165.229 C 62.827 167.770,62.815 211.442,91.576 214.340 L 94.151 214.600 95.218 218.800 C 97.666 228.433,101.848 238.322,106.889 246.393 C 107.239 246.954,107.042 247.455,105.865 248.997 C 88.627 271.573,117.898 301.622,139.772 283.806 C 142.456 281.620,141.829 281.604,145.744 283.956 C 152.832 288.213,160.222 291.438,169.169 294.177 L 174.537 295.821 175.097 298.610 C 180.723 326.634,218.662 327.331,223.953 299.508 L 224.659 295.800 229.429 294.345 C 237.974 291.739,246.706 287.952,253.257 284.012 C 257.261 281.604,256.824 281.637,259.128 283.571 C 267.721 290.785,281.958 290.399,290.574 282.720 C 299.953 274.361,301.241 259.047,293.377 249.393 L 291.618 247.233 293.882 243.316 C 297.668 236.768,300.763 229.801,303.072 222.627 C 305.848 214.000,305.443 214.650,308.243 214.332 C 327.302 212.168,336.536 189.295,324.314 174.521 C 320.167 169.509,312.125 165.200,306.916 165.200 C 306.192 165.200,305.600 165.155,305.600 165.099 C 305.600 161.573,298.525 144.064,294.010 136.417 L 291.604 132.341 293.395 130.143 C 302.576 118.872,298.865 100.309,286.107 93.683 C 277.410 89.166,266.900 89.923,259.389 95.608 L 256.848 97.531 254.924 96.300 C 249.896 93.083,239.367 88.799,229.622 86.005 L 224.643 84.578 223.961 80.713 C 221.627 67.484,210.173 58.929,196.800 60.428 M65.362 78.862 L 64.600 79.724 65.700 79.016 C 66.834 78.286,67.049 78.000,66.462 78.000 C 66.276 78.000,65.781 78.388,65.362 78.862 M55.000 87.200 C 54.602 87.640,54.456 88.000,54.676 88.000 C 54.896 88.000,55.402 87.640,55.800 87.200 C 56.198 86.760,56.344 86.400,56.124 86.400 C 55.904 86.400,55.398 86.760,55.000 87.200 M176.401 92.202 C 178.359 99.198,186.027 106.361,193.707 108.369 L 196.200 109.020 196.304 125.691 L 196.409 142.362 194.904 142.596 C 185.476 144.063,178.237 146.802,171.429 151.476 L 168.259 153.654 156.545 141.945 L 144.830 130.236 145.758 129.018 C 150.368 122.962,151.179 113.484,147.809 105.059 C 147.212 103.566,146.785 102.283,146.861 102.209 C 148.868 100.256,158.651 95.749,167.400 92.747 C 175.776 89.873,175.749 89.874,176.401 92.202 M232.200 92.886 C 239.582 95.399,250.671 100.348,253.128 102.225 C 253.198 102.279,252.874 103.071,252.407 103.986 C 248.712 111.228,248.755 119.980,252.521 127.336 L 254.126 130.472 242.513 142.085 L 230.900 153.699 228.197 151.627 C 222.346 147.142,214.310 144.104,204.300 142.590 L 202.800 142.364 202.800 125.665 L 202.800 108.967 205.700 108.288 C 213.615 106.434,220.074 100.596,222.482 93.119 L 223.376 90.344 224.788 90.593 C 225.564 90.730,228.900 91.762,232.200 92.886 M46.962 95.038 C 46.187 95.731,46.077 95.938,46.633 95.660 C 47.427 95.263,48.704 94.000,48.311 94.000 C 48.208 94.000,47.601 94.467,46.962 95.038 M151.697 146.697 C 158.024 153.021,163.200 158.328,163.200 158.490 C 163.200 158.652,162.324 160.093,161.252 161.692 C 156.798 168.343,152.403 179.968,152.401 185.104 L 152.400 186.409 135.516 186.304 L 118.633 186.200 118.162 184.000 C 116.413 175.818,110.119 169.176,101.500 166.418 C 100.675 166.154,100.000 165.856,100.000 165.756 C 100.000 164.288,105.209 149.621,107.087 145.800 C 109.020 141.870,111.807 137.203,112.223 137.201 C 112.456 137.201,114.166 137.775,116.023 138.477 C 123.032 141.127,132.729 140.201,138.200 136.359 C 139.080 135.741,139.889 135.228,139.997 135.218 C 140.106 135.208,145.371 140.374,151.697 146.697 M261.452 136.616 C 267.739 140.408,276.084 141.088,283.355 138.399 L 286.910 137.085 287.670 138.042 C 289.960 140.927,295.051 152.674,297.833 161.496 L 299.125 165.592 295.063 167.567 C 287.803 171.097,282.907 176.951,281.017 184.360 L 280.548 186.200 263.706 186.304 L 246.865 186.409 246.599 183.704 C 245.800 175.579,242.248 166.833,237.102 160.324 L 235.536 158.342 247.049 146.771 C 253.382 140.407,258.684 135.200,258.833 135.200 C 258.982 135.200,260.160 135.837,261.452 136.616 M6.256 169.684 C 6.121 170.188,6.028 171.050,6.049 171.600 C 6.072 172.189,6.231 171.871,6.436 170.825 C 6.803 168.952,6.673 168.127,6.256 169.684 M4.893 178.400 C 4.893 179.170,4.975 179.485,5.076 179.100 C 5.176 178.715,5.176 178.085,5.076 177.700 C 4.975 177.315,4.893 177.630,4.893 178.400 M3.867 183.467 C 3.445 183.888,3.556 186.000,4.000 186.000 C 4.220 186.000,4.400 185.370,4.400 184.600 C 4.400 183.161,4.327 183.006,3.867 183.467 M3.232 191.100 C 3.214 192.475,3.354 193.600,3.541 193.600 C 3.729 193.600,3.805 192.655,3.710 191.500 C 3.456 188.417,3.267 188.260,3.232 191.100 M152.400 194.237 C 152.400 200.214,156.539 211.565,160.973 217.744 C 162.198 219.452,163.200 220.972,163.200 221.122 C 163.200 221.618,140.616 244.000,140.115 244.000 C 139.845 244.000,138.550 243.454,137.237 242.787 C 129.794 239.005,122.330 238.741,115.237 242.011 C 113.713 242.713,112.266 243.165,112.022 243.014 C 111.324 242.582,108.433 236.587,106.958 232.512 C 106.220 230.474,105.138 227.861,104.553 226.707 C 103.308 224.251,99.918 214.056,100.196 213.606 C 100.301 213.437,101.201 213.093,102.196 212.843 C 105.857 211.921,108.519 210.333,111.612 207.226 C 115.745 203.073,116.561 201.504,118.642 193.700 C 118.746 193.310,122.475 193.200,135.587 193.200 L 152.400 193.200 152.400 194.237 M281.361 196.400 C 283.767 204.685,290.297 211.527,297.200 212.996 C 297.970 213.160,298.717 213.363,298.861 213.446 C 299.866 214.033,292.733 232.930,288.875 239.900 C 286.807 243.637,287.017 243.526,284.470 242.235 C 277.477 238.692,269.637 238.952,261.611 242.994 L 258.936 244.341 247.223 232.623 C 240.780 226.177,235.694 220.789,235.921 220.649 C 240.297 217.945,246.800 202.458,246.800 194.743 L 246.800 193.191 263.645 193.296 L 280.489 193.400 281.361 196.400 M3.304 201.800 C 3.325 205.661,3.335 205.703,3.577 203.000 C 3.716 201.460,3.706 199.660,3.555 199.000 C 3.399 198.315,3.291 199.515,3.304 201.800 M3.606 208.300 C 3.609 208.905,3.787 209.670,4.000 210.000 C 4.284 210.439,4.389 210.145,4.394 208.900 C 4.397 207.965,4.220 207.200,4.000 207.200 C 3.780 207.200,3.603 207.695,3.606 208.300 M5.868 219.800 C 6.171 221.777,6.402 222.114,6.394 220.567 C 6.391 219.925,6.216 219.130,6.005 218.800 C 5.745 218.391,5.701 218.710,5.868 219.800 M171.476 228.254 C 177.957 232.930,185.969 236.073,193.042 236.714 L 196.200 237.000 196.200 253.776 L 196.200 270.552 193.973 271.214 C 185.855 273.624,178.903 279.866,176.593 286.821 C 176.233 287.904,175.773 288.893,175.571 289.018 C 174.018 289.978,151.538 280.869,147.609 277.687 L 146.705 276.955 147.489 275.378 C 151.119 268.076,150.403 257.250,145.860 250.765 C 145.497 250.246,145.200 249.548,145.200 249.214 C 145.200 248.631,167.499 226.000,168.073 226.000 C 168.226 226.000,169.757 227.014,171.476 228.254 M242.539 237.539 L 254.073 249.078 252.875 251.452 C 248.848 259.429,248.546 267.308,251.984 274.682 L 253.142 277.165 249.556 279.160 C 243.795 282.366,226.235 289.200,223.759 289.200 C 223.504 289.200,223.080 288.345,222.817 287.300 C 220.913 279.730,210.418 270.800,203.425 270.800 C 202.855 270.800,202.802 269.100,202.896 253.900 L 203.000 237.000 206.000 236.708 C 213.640 235.965,221.180 232.996,227.672 228.173 C 229.281 226.978,230.689 226.000,230.801 226.000 C 230.913 226.000,236.195 231.193,242.539 237.539 M6.951 226.933 C 7.088 227.336,7.200 227.957,7.200 228.313 C 7.200 228.789,7.318 228.842,7.646 228.514 C 7.975 228.185,7.909 227.821,7.397 227.134 C 6.903 226.471,6.774 226.412,6.951 226.933 M11.200 240.800 C 11.200 241.020,11.380 241.200,11.600 241.200 C 11.820 241.200,12.000 241.590,12.000 242.067 C 12.000 242.543,12.112 242.822,12.248 242.685 C 12.608 242.325,12.056 240.400,11.592 240.400 C 11.377 240.400,11.200 240.580,11.200 240.800 M23.628 266.600 C 23.628 266.820,23.886 267.450,24.200 268.000 C 24.514 268.550,24.772 268.820,24.772 268.600 C 24.772 268.380,24.514 267.750,24.200 267.200 C 23.886 266.650,23.628 266.380,23.628 266.600 M40.278 340.605 C 39.912 341.372,39.695 342.000,39.796 342.000 C 40.070 342.000,41.284 339.551,41.101 339.368 C 41.014 339.281,40.644 339.838,40.278 340.605 M24.656 362.884 C 24.521 363.388,24.427 364.160,24.446 364.600 C 24.465 365.040,24.645 364.698,24.846 363.840 C 25.236 362.178,25.070 361.340,24.656 362.884 M24.493 369.200 C 24.493 369.970,24.575 370.285,24.676 369.900 C 24.776 369.515,24.776 368.885,24.676 368.500 C 24.575 368.115,24.493 368.430,24.493 369.200 " stroke="none" fill="#040505" fill-rule="evenodd"></path><path id="path1" d="M183.400 36.270 C 175.021 36.684,158.419 38.579,158.000 39.169 C 157.890 39.325,156.270 39.672,154.400 39.941 C 149.780 40.607,145.147 41.562,144.305 42.021 C 143.923 42.229,143.259 42.400,142.829 42.400 C 142.399 42.400,141.926 42.596,141.778 42.835 C 141.631 43.074,141.179 43.183,140.774 43.077 C 140.369 42.971,139.985 43.003,139.919 43.148 C 139.854 43.292,136.920 44.150,133.400 45.054 C 129.880 45.958,125.470 47.285,123.600 48.003 C 121.730 48.720,119.390 49.585,118.400 49.924 C 117.410 50.263,116.510 50.663,116.400 50.812 C 116.290 50.962,114.850 51.489,113.200 51.984 C 111.550 52.479,108.010 53.945,105.334 55.242 C 102.658 56.539,100.183 57.600,99.834 57.600 C 99.485 57.600,99.200 57.780,99.200 58.000 C 99.200 58.220,98.930 58.400,98.600 58.400 C 98.270 58.400,98.000 58.580,98.000 58.800 C 98.000 59.020,97.830 59.200,97.622 59.200 C 96.675 59.200,89.670 62.803,88.484 63.900 C 88.186 64.175,87.686 64.400,87.371 64.400 C 87.057 64.400,86.800 64.580,86.800 64.800 C 86.800 65.020,86.432 65.200,85.982 65.200 C 85.532 65.200,84.714 65.650,84.164 66.200 C 83.614 66.750,82.944 67.200,82.676 67.200 C 82.210 67.200,78.015 69.845,77.600 70.401 C 77.490 70.548,76.102 71.422,74.515 72.343 C 72.928 73.264,71.488 74.239,71.315 74.510 C 71.142 74.780,70.477 75.271,69.837 75.601 C 69.198 75.930,67.869 76.960,66.884 77.890 C 65.900 78.819,64.758 79.686,64.347 79.817 C 63.936 79.947,63.600 80.226,63.600 80.437 C 63.600 80.647,63.195 80.980,62.700 81.175 C 61.591 81.612,57.151 85.402,55.993 86.900 C 55.525 87.505,54.941 88.000,54.697 88.000 C 54.265 88.000,51.156 90.815,49.443 92.756 C 48.980 93.282,47.520 94.812,46.200 96.156 C 42.626 99.794,37.786 105.184,37.897 105.402 C 37.950 105.507,37.541 106.090,36.989 106.697 C 33.710 110.301,32.812 111.419,32.144 112.729 C 31.735 113.531,30.999 114.515,30.508 114.916 C 30.017 115.317,29.322 116.265,28.962 117.023 C 28.603 117.780,28.149 118.400,27.954 118.400 C 27.759 118.400,27.600 118.670,27.600 119.000 C 27.600 119.330,27.420 119.600,27.200 119.600 C 26.980 119.600,26.800 119.870,26.800 120.200 C 26.800 120.530,26.640 120.800,26.443 120.800 C 26.247 120.800,25.974 121.250,25.836 121.800 C 25.698 122.350,25.408 122.800,25.192 122.800 C 24.977 122.800,24.800 123.055,24.800 123.367 C 24.800 123.678,24.656 123.993,24.479 124.067 C 23.997 124.267,21.067 129.243,21.067 129.862 C 21.067 130.158,20.906 130.400,20.710 130.400 C 20.513 130.400,20.464 130.580,20.600 130.800 C 20.736 131.020,20.657 131.200,20.424 131.200 C 20.191 131.200,20.000 131.470,20.000 131.800 C 20.000 132.130,19.855 132.400,19.677 132.400 C 19.499 132.400,19.043 133.165,18.663 134.100 C 18.283 135.035,17.605 136.488,17.157 137.329 C 16.709 138.170,16.270 139.236,16.181 139.699 C 16.092 140.162,15.828 140.659,15.595 140.803 C 15.362 140.947,15.081 141.561,14.971 142.168 C 14.861 142.775,14.499 143.687,14.167 144.195 C 13.834 144.702,13.470 145.626,13.357 146.246 C 13.245 146.867,12.961 147.606,12.727 147.888 C 12.493 148.169,12.450 148.400,12.631 148.400 C 12.812 148.400,12.758 148.602,12.511 148.849 C 12.264 149.096,12.161 149.554,12.281 149.868 C 12.402 150.182,12.222 150.655,11.881 150.919 C 11.268 151.395,10.116 154.684,9.751 157.000 C 9.647 157.660,9.457 158.470,9.328 158.800 C 9.200 159.130,9.043 159.760,8.981 160.200 C 8.918 160.640,8.597 161.517,8.266 162.149 C 7.935 162.780,7.730 163.635,7.809 164.049 C 7.889 164.462,7.795 164.800,7.602 164.800 C 7.277 164.800,6.541 168.219,6.720 168.897 C 6.808 169.233,5.647 175.478,5.325 176.400 C 5.087 177.078,4.849 179.558,4.835 181.500 C 4.829 182.215,4.680 182.800,4.502 182.800 C 4.324 182.800,4.248 183.520,4.331 184.400 C 4.417 185.298,4.309 186.000,4.085 186.000 C 3.426 186.000,3.242 187.639,3.568 190.600 C 3.762 192.368,3.729 193.496,3.477 193.661 C 3.226 193.826,3.187 195.014,3.373 196.861 C 3.667 199.784,3.679 204.549,3.397 206.018 C 3.315 206.441,3.493 206.925,3.792 207.094 C 4.132 207.286,4.401 208.389,4.511 210.046 C 4.607 211.501,4.805 212.885,4.951 213.121 C 5.097 213.357,5.199 214.056,5.178 214.675 C 5.157 215.294,5.357 216.520,5.623 217.400 C 5.889 218.280,6.147 219.651,6.196 220.447 C 6.246 221.242,6.402 222.079,6.542 222.307 C 6.683 222.534,6.786 223.143,6.771 223.660 C 6.728 225.221,7.060 226.749,7.579 227.374 C 7.848 227.699,7.961 228.139,7.829 228.353 C 7.567 228.777,8.364 230.844,8.949 231.259 C 9.150 231.402,9.216 231.897,9.095 232.359 C 8.974 232.822,9.014 233.200,9.185 233.200 C 9.355 233.200,9.599 233.875,9.726 234.700 C 10.265 238.205,10.837 239.884,11.681 240.436 C 11.974 240.628,12.535 242.556,13.360 246.200 C 13.410 246.420,13.844 247.445,14.325 248.478 C 14.806 249.511,15.200 250.557,15.200 250.802 C 15.200 251.047,15.380 251.136,15.600 251.000 C 15.820 250.864,16.000 251.117,16.000 251.562 C 16.000 252.007,16.424 253.143,16.942 254.086 C 17.460 255.029,18.204 256.655,18.596 257.700 C 18.988 258.745,19.464 259.600,19.654 259.600 C 19.844 259.600,20.000 259.870,20.000 260.200 C 20.000 260.530,20.168 260.800,20.373 260.800 C 20.703 260.800,21.209 261.856,21.427 263.000 C 21.566 263.724,23.272 266.400,23.596 266.400 C 23.770 266.400,24.195 267.105,24.540 267.966 C 24.884 268.827,25.357 269.650,25.589 269.793 C 25.822 269.937,26.262 270.627,26.566 271.327 C 26.871 272.027,27.596 273.095,28.177 273.700 C 28.757 274.305,29.126 274.800,28.996 274.800 C 28.866 274.800,29.263 275.475,29.880 276.300 C 30.496 277.124,31.134 277.979,31.299 278.200 C 31.463 278.420,32.393 279.680,33.366 281.000 C 34.338 282.320,35.469 283.760,35.878 284.200 C 36.287 284.640,37.010 285.551,37.484 286.224 C 37.959 286.898,39.034 288.198,39.873 289.113 C 40.713 290.029,42.210 291.697,43.200 292.820 C 44.190 293.943,45.431 295.253,45.959 295.731 C 46.486 296.209,47.322 296.994,47.816 297.476 C 48.311 297.957,48.824 298.242,48.958 298.109 C 49.091 297.976,49.200 298.128,49.200 298.447 C 49.200 298.971,50.820 300.562,56.448 305.563 C 58.314 307.222,58.990 309.888,57.757 310.728 C 57.538 310.878,57.043 311.720,56.657 312.600 C 56.272 313.480,55.686 314.695,55.356 315.300 C 55.025 315.905,54.846 316.400,54.958 316.400 C 55.070 316.400,54.724 316.873,54.188 317.450 C 53.653 318.028,53.296 318.631,53.395 318.791 C 53.494 318.951,53.316 319.424,53.000 319.841 C 52.684 320.258,52.420 320.881,52.413 321.225 C 52.406 321.568,52.033 322.243,51.584 322.725 C 51.136 323.206,50.900 323.600,51.061 323.600 C 51.221 323.600,51.046 323.825,50.672 324.100 C 50.297 324.375,49.912 325.010,49.816 325.510 C 49.720 326.011,49.273 326.890,48.821 327.464 C 48.369 328.038,48.000 328.754,48.000 329.054 C 48.000 329.354,47.863 329.600,47.695 329.600 C 47.393 329.600,47.160 329.962,46.005 332.231 C 45.677 332.874,45.182 333.638,44.905 333.929 C 44.627 334.219,44.400 334.705,44.400 335.009 C 44.400 335.312,44.085 335.744,43.700 335.968 C 43.315 336.192,43.175 336.381,43.389 336.388 C 43.603 336.395,43.378 336.680,42.889 337.023 C 42.400 337.365,42.000 337.905,42.000 338.223 C 42.000 338.540,41.856 338.800,41.680 338.800 C 41.505 338.800,41.133 339.430,40.855 340.200 C 40.576 340.970,40.040 341.764,39.664 341.966 C 38.878 342.386,36.000 346.431,36.000 347.115 C 36.000 347.366,35.635 347.767,35.189 348.006 C 34.743 348.245,34.472 348.592,34.586 348.778 C 34.701 348.964,34.559 349.207,34.269 349.318 C 33.980 349.429,32.946 350.707,31.972 352.158 C 30.997 353.609,30.065 354.797,29.900 354.798 C 29.735 354.799,29.600 355.010,29.600 355.266 C 29.600 355.523,29.322 356.018,28.983 356.366 C 27.304 358.089,26.000 359.799,26.000 360.277 C 26.000 360.571,25.821 361.123,25.603 361.505 C 24.897 362.741,24.029 367.374,24.427 367.780 C 24.632 367.989,24.800 368.675,24.800 369.305 C 24.800 370.484,26.638 374.800,27.140 374.800 C 27.295 374.800,28.018 375.345,28.747 376.010 C 31.956 378.942,32.278 379.006,43.600 378.950 C 53.708 378.900,60.997 378.311,67.400 377.026 C 68.940 376.717,72.090 376.095,74.400 375.643 C 81.704 374.216,82.877 373.939,88.400 372.335 C 93.415 370.878,96.433 369.854,99.400 368.603 C 100.060 368.325,102.389 367.509,104.576 366.790 C 106.763 366.071,109.103 365.160,109.776 364.766 C 110.449 364.371,112.529 363.395,114.398 362.597 C 116.267 361.799,118.067 360.919,118.398 360.641 C 118.729 360.363,119.864 359.817,120.921 359.427 C 121.977 359.037,123.767 358.095,124.898 357.334 C 126.029 356.573,128.710 355.042,130.856 353.932 C 136.558 350.982,137.198 350.973,157.600 353.544 C 161.010 353.974,166.500 354.533,169.800 354.787 C 173.100 355.041,177.150 355.439,178.800 355.671 C 183.068 356.274,213.725 356.570,218.623 356.057 C 230.877 354.772,237.577 353.907,242.400 352.986 C 253.112 350.940,257.276 349.996,259.716 349.059 C 261.082 348.535,263.550 347.799,265.200 347.424 C 268.938 346.575,279.392 343.086,282.600 341.617 C 283.920 341.012,286.350 340.033,288.000 339.441 C 291.408 338.219,307.003 330.746,308.093 329.813 C 308.487 329.476,308.972 329.200,309.172 329.200 C 309.673 329.200,320.492 322.608,323.251 320.621 C 324.490 319.729,326.020 318.684,326.651 318.297 C 329.542 316.529,339.875 308.384,343.765 304.807 C 346.600 302.200,354.400 294.450,354.400 294.240 C 354.400 294.142,354.895 293.552,355.500 292.929 C 357.197 291.180,360.349 287.438,364.249 282.540 C 369.717 275.671,370.147 275.099,370.951 273.607 C 371.364 272.841,372.174 271.598,372.751 270.845 C 375.700 266.998,383.988 251.157,383.612 250.086 C 383.589 250.023,383.817 249.726,384.117 249.426 C 384.417 249.126,385.344 246.927,386.177 244.540 C 387.010 242.153,387.922 239.660,388.204 239.000 C 389.147 236.788,390.748 231.027,391.204 228.200 C 391.453 226.660,392.001 224.500,392.421 223.400 C 394.637 217.606,395.887 191.512,394.443 181.200 C 393.615 175.281,392.895 171.146,392.390 169.400 C 392.136 168.520,391.673 166.450,391.361 164.800 C 390.665 161.110,388.943 154.949,388.231 153.600 C 387.941 153.050,387.574 151.880,387.416 151.000 C 387.258 150.120,386.988 149.220,386.817 149.000 C 386.646 148.780,386.193 147.610,385.810 146.400 C 385.428 145.190,384.684 143.529,384.157 142.709 C 383.631 141.888,383.200 140.988,383.200 140.709 C 383.199 140.126,380.886 135.119,380.472 134.807 C 380.217 134.613,379.971 134.125,378.859 131.600 C 378.617 131.050,377.920 129.780,377.310 128.778 C 376.699 127.775,375.679 126.065,375.042 124.978 C 374.404 123.890,373.634 122.640,373.330 122.200 C 373.026 121.760,372.102 120.410,371.276 119.200 C 366.123 111.645,363.474 108.301,355.598 99.410 C 350.735 93.921,346.701 89.928,341.040 85.000 C 339.523 83.680,337.653 82.023,336.882 81.318 C 336.112 80.612,334.924 79.764,334.241 79.433 C 333.558 79.102,332.460 78.317,331.800 77.689 C 331.140 77.062,330.060 76.205,329.400 75.786 C 328.740 75.366,327.570 74.538,326.800 73.944 C 326.030 73.351,324.827 72.535,324.126 72.133 C 322.972 71.468,321.588 70.557,316.535 67.129 C 315.619 66.508,314.719 65.996,314.535 65.991 C 314.351 65.986,313.750 65.630,313.200 65.200 C 312.650 64.770,311.900 64.414,311.533 64.409 C 311.167 64.404,310.807 64.241,310.733 64.046 C 310.558 63.581,304.054 60.000,303.385 60.000 C 303.100 60.000,302.807 59.865,302.733 59.700 C 302.289 58.701,285.267 51.200,283.445 51.200 C 283.090 51.200,282.800 51.027,282.800 50.815 C 282.800 50.604,281.945 50.161,280.900 49.830 C 277.051 48.614,272.967 47.178,271.800 46.631 C 270.595 46.066,265.987 44.901,260.400 43.748 C 258.750 43.407,257.220 42.994,257.000 42.830 C 256.148 42.194,251.607 41.034,246.812 40.227 C 244.055 39.763,241.620 39.271,241.400 39.134 C 240.460 38.550,233.994 37.810,219.200 36.593 C 212.941 36.078,191.241 35.882,183.400 36.270 M205.400 60.876 C 214.896 62.880,222.190 70.675,223.961 80.713 L 224.643 84.578 229.622 86.005 C 239.367 88.799,249.896 93.083,254.924 96.300 L 256.848 97.531 259.389 95.608 C 266.900 89.923,277.410 89.166,286.107 93.683 C 298.865 100.309,302.576 118.872,293.395 130.143 L 291.604 132.341 294.010 136.417 C 298.525 144.064,305.600 161.573,305.600 165.099 C 305.600 165.155,306.192 165.200,306.916 165.200 C 312.125 165.200,320.167 169.509,324.314 174.521 C 336.536 189.295,327.302 212.168,308.243 214.332 C 305.443 214.650,305.848 214.000,303.072 222.627 C 300.763 229.801,297.668 236.768,293.882 243.316 L 291.618 247.233 293.377 249.393 C 301.241 259.047,299.953 274.361,290.574 282.720 C 281.958 290.399,267.721 290.785,259.128 283.571 C 256.824 281.637,257.261 281.604,253.257 284.012 C 246.706 287.952,237.974 291.739,229.429 294.345 L 224.659 295.800 223.953 299.508 C 218.662 327.331,180.723 326.634,175.097 298.610 L 174.537 295.821 169.169 294.177 C 160.222 291.438,152.832 288.213,145.744 283.956 C 141.829 281.604,142.456 281.620,139.772 283.806 C 117.898 301.622,88.627 271.573,105.865 248.997 C 107.042 247.455,107.239 246.954,106.889 246.393 C 101.848 238.322,97.666 228.433,95.218 218.800 L 94.151 214.600 91.576 214.340 C 62.815 211.442,62.827 167.770,91.589 165.229 L 94.179 165.000 94.910 162.400 C 97.706 152.450,101.706 142.161,105.156 136.040 L 107.246 132.333 105.637 130.247 C 97.994 120.341,99.834 105.160,109.679 96.895 C 118.389 89.583,132.091 89.258,140.362 96.168 L 142.076 97.600 143.738 96.580 C 149.702 92.920,160.128 88.622,169.382 86.007 L 174.563 84.543 175.041 81.972 C 177.889 66.631,190.650 57.763,205.400 60.876 M167.400 92.747 C 158.651 95.749,148.868 100.256,146.861 102.209 C 146.785 102.283,147.212 103.566,147.809 105.059 C 151.179 113.484,150.368 122.962,145.758 129.018 L 144.830 130.236 156.545 141.945 L 168.259 153.654 171.429 151.476 C 178.237 146.802,185.476 144.063,194.904 142.596 L 196.409 142.362 196.304 125.691 L 196.200 109.020 193.707 108.369 C 186.027 106.361,178.359 99.198,176.401 92.202 C 175.749 89.874,175.776 89.873,167.400 92.747 M222.482 93.119 C 220.074 100.596,213.615 106.434,205.700 108.288 L 202.800 108.967 202.800 125.665 L 202.800 142.364 204.300 142.590 C 214.310 144.104,222.346 147.142,228.197 151.627 L 230.900 153.699 242.513 142.085 L 254.126 130.472 252.521 127.336 C 248.755 119.980,248.712 111.228,252.407 103.986 C 252.874 103.071,253.198 102.279,253.128 102.225 C 249.577 99.512,230.154 91.540,224.788 90.593 L 223.376 90.344 222.482 93.119 M138.200 136.359 C 132.729 140.201,123.032 141.127,116.023 138.477 C 114.166 137.775,112.456 137.201,112.223 137.201 C 111.807 137.203,109.020 141.870,107.087 145.800 C 105.209 149.621,100.000 164.288,100.000 165.756 C 100.000 165.856,100.675 166.154,101.500 166.418 C 110.119 169.176,116.413 175.818,118.162 184.000 L 118.633 186.200 135.516 186.304 L 152.400 186.409 152.401 185.104 C 152.403 179.968,156.798 168.343,161.252 161.692 C 162.324 160.093,163.200 158.652,163.200 158.490 C 163.200 158.156,140.303 135.190,139.997 135.218 C 139.889 135.228,139.080 135.741,138.200 136.359 M247.049 146.771 L 235.536 158.342 237.102 160.324 C 242.248 166.833,245.800 175.579,246.599 183.704 L 246.865 186.409 263.706 186.304 L 280.548 186.200 281.017 184.360 C 282.907 176.951,287.803 171.097,295.063 167.567 L 299.125 165.592 297.833 161.496 C 295.051 152.674,289.960 140.927,287.670 138.042 L 286.910 137.085 283.355 138.399 C 276.084 141.088,267.739 140.408,261.452 136.616 C 260.160 135.837,258.982 135.200,258.833 135.200 C 258.684 135.200,253.382 140.407,247.049 146.771 M118.642 193.700 C 116.561 201.504,115.745 203.073,111.612 207.226 C 108.519 210.333,105.857 211.921,102.196 212.843 C 101.201 213.093,100.301 213.437,100.196 213.606 C 99.918 214.056,103.308 224.251,104.553 226.707 C 105.138 227.861,106.220 230.474,106.958 232.512 C 108.433 236.587,111.324 242.582,112.022 243.014 C 112.266 243.165,113.713 242.713,115.237 242.011 C 122.330 238.741,129.794 239.005,137.237 242.787 C 138.550 243.454,139.845 244.000,140.115 244.000 C 140.616 244.000,163.200 221.618,163.200 221.122 C 163.200 220.972,162.198 219.452,160.973 217.744 C 156.539 211.565,152.400 200.214,152.400 194.237 L 152.400 193.200 135.587 193.200 C 122.475 193.200,118.746 193.310,118.642 193.700 M246.800 194.743 C 246.800 202.458,240.297 217.945,235.921 220.649 C 235.694 220.789,240.780 226.177,247.223 232.623 L 258.936 244.341 261.611 242.994 C 269.637 238.952,277.477 238.692,284.470 242.235 C 287.017 243.526,286.807 243.637,288.875 239.900 C 292.733 232.930,299.866 214.033,298.861 213.446 C 298.717 213.363,297.970 213.160,297.200 212.996 C 290.297 211.527,283.767 204.685,281.361 196.400 L 280.489 193.400 263.645 193.296 L 246.800 193.191 246.800 194.743 M156.497 237.303 C 144.942 248.863,144.723 249.141,145.860 250.765 C 150.403 257.250,151.119 268.076,147.489 275.378 L 146.705 276.955 147.609 277.687 C 151.538 280.869,174.018 289.978,175.571 289.018 C 175.773 288.893,176.233 287.904,176.593 286.821 C 178.903 279.866,185.855 273.624,193.973 271.214 L 196.200 270.552 196.200 253.776 L 196.200 237.000 193.042 236.714 C 185.969 236.073,177.957 232.930,171.476 228.254 C 169.757 227.014,168.226 226.000,168.073 226.000 C 167.920 226.000,162.711 231.086,156.497 237.303 M227.672 228.173 C 221.180 232.996,213.640 235.965,206.000 236.708 L 203.000 237.000 202.896 253.900 C 202.802 269.100,202.855 270.800,203.425 270.800 C 210.418 270.800,220.913 279.730,222.817 287.300 C 223.080 288.345,223.504 289.200,223.759 289.200 C 226.235 289.200,243.795 282.366,249.556 279.160 L 253.142 277.165 251.984 274.682 C 248.546 267.308,248.848 259.429,252.875 251.452 L 254.073 249.078 242.539 237.539 C 236.195 231.193,230.913 226.000,230.801 226.000 C 230.689 226.000,229.281 226.978,227.672 228.173 " stroke="none" fill="#04bbfb" fill-rule="evenodd"></path></g></svg>